# xmcd
#
# Track frame offsets:
# 150
# 15240
# 30285
# 45162
# 63102
# 80262
# 96572
# 114865
# 127704
# 143970
# 161230
# 183387
# 204258
# 217788
# 232190
# 246148
# 261907
#
# Disc length: 3653 seconds
#
#
# Revision: 0
# Processed by: cddbd v1.5.1PL0 Copyright (c) Steve Scherf et al.
# Submitted via: FreeRIP 2.80 
#
DISCID=d10e4311
DTITLE=The Oak Ridge Boys - FromThe Heart
DYEAR=2001
DGENRE=Gospel
TTITLE0=I'm Working on a Building
TTITLE1=Show Me the Way to Go
TTITLE2=I Know What Lies Ahead
TTITLE3=Fall to Fly
TTITLE4=Write Your Name Across My Heart
TTITLE5=The First Step to Heaven
TTITLE6=A Mansion There For You
TTITLE7=If Not For the Love of Christ
TTITLE8=Angels Watching Over Me
TTITLE9=Then You'll See
TTITLE10=Loving God, Loving Each Other
TTITLE11=This Little Light of Mine
TTITLE12=How Great Thou Art
TTITLE13=I Saw The Light
TTITLE14=Amazing Grace
TTITLE15=God Will Take Care of You
TTITLE16=Jesus Is Coming Soon
EXTD=
EXTT0=
EXTT1=
EXTT2=
EXTT3=
EXTT4=
EXTT5=
EXTT6=
EXTT7=
EXTT8=
EXTT9=
EXTT10=
EXTT11=
EXTT12=
EXTT13=
EXTT14=
EXTT15=
EXTT16=
PLAYORDER=
